<svg width="135" height="41" viewBox="0 0 135 41" fill="none" xmlns="http://www.w3.org/2000/svg">
<path d="M130 0.864258H5C2.23858 0.864258 0 3.10573 0 5.87072V35.9095C0 38.6745 2.23858 40.9159 5 40.9159H130C132.761 40.9159 135 38.6745 135 35.9095V5.87072C135 3.10573 132.761 0.864258 130 0.864258Z" fill="black"/>
<path d="M130 1.66529C131.114 1.66529 132.182 2.10836 132.97 2.89703C133.758 3.6857 134.2 4.75537 134.2 5.87072V35.9095C134.2 37.0248 133.758 38.0945 132.97 38.8832C132.182 39.6718 131.114 40.1149 130 40.1149H5C3.88609 40.1149 2.8178 39.6718 2.03015 38.8832C1.2425 38.0945 0.8 37.0248 0.8 35.9095V5.87072C0.8 4.75537 1.2425 3.6857 2.03015 2.89703C2.8178 2.10836 3.88609 1.66529 5 1.66529H130ZM130 0.864258H5C3.67392 0.864258 2.40215 1.39172 1.46447 2.33062C0.526784 3.26951 0 4.54292 0 5.87072V35.9095C0 37.2373 0.526784 38.5107 1.46447 39.4496C2.40215 40.3885 3.67392 40.9159 5 40.9159H130C131.326 40.9159 132.598 40.3885 133.536 39.4496C134.473 38.5107 135 37.2373 135 35.9095V5.87072C135 4.54292 134.473 3.26951 133.536 2.33062C132.598 1.39172 131.326 0.864258 130 0.864258Z" fill="#A6A6A6"/>
<path d="M47.4196 11.1179C47.4366 11.4851 47.3789 11.852 47.2499 12.1963C47.121 12.5405 46.9236 12.855 46.6696 13.1205C46.386 13.4154 46.0435 13.6473 45.6644 13.8008C45.2854 13.9543 44.8782 14.0262 44.4696 14.0116C43.8496 14.0068 43.2448 13.8188 42.731 13.4713C42.2172 13.1237 41.8172 12.6321 41.5813 12.058C41.3453 11.4839 41.2838 10.8528 41.4045 10.2438C41.5251 9.63487 41.8226 9.07511 42.2596 8.63468C42.5468 8.34108 42.8911 8.10962 43.2713 7.95462C43.6514 7.79961 44.0592 7.72436 44.4696 7.73351C44.8923 7.7321 45.3109 7.81729 45.6996 7.98384C46.0614 8.12998 46.3836 8.35988 46.6396 8.6547L46.1096 9.18539C45.91 8.94767 45.6579 8.7597 45.3733 8.63632C45.0887 8.51293 44.7793 8.45753 44.4696 8.47447C44.1572 8.47294 43.8478 8.53457 43.5598 8.65569C43.2718 8.77681 43.0112 8.95491 42.7936 9.17932C42.576 9.40373 42.406 9.66981 42.2936 9.96163C42.1812 10.2535 42.1288 10.565 42.1396 10.8776C42.133 11.3443 42.2647 11.8025 42.5179 12.1944C42.7712 12.5863 43.1346 12.8944 43.5625 13.0797C43.9904 13.265 44.4635 13.3192 44.9221 13.2356C45.3808 13.152 45.8044 12.9342 46.1396 12.6098C46.4473 12.2759 46.6248 11.8423 46.6396 11.3882H44.4696V10.6673H47.3796C47.4063 10.816 47.4196 10.9668 47.4196 11.1179V11.1179ZM51.9996 8.61465H49.2996V10.5171H51.7596V11.238H49.2996V13.1405H51.9996V13.8814H48.4996V7.8737H51.9996V8.61465ZM55.2796 13.8814H54.5096V8.61465H52.8296V7.8737H56.9996V8.61465H55.2796V13.8814ZM59.9396 13.8814V7.8737H60.7096V13.8814H59.9396ZM64.1296 13.8814H63.3596V8.61465H61.6796V7.8737H65.7996V8.61465H64.1296V13.8814ZM73.6096 13.1004C73.025 13.6825 72.234 14.0093 71.4096 14.0093C70.5851 14.0093 69.7942 13.6825 69.2096 13.1004C68.6414 12.4982 68.3248 11.7011 68.3248 10.8726C68.3248 10.0441 68.6414 9.24694 69.2096 8.64469C69.4977 8.35406 69.8405 8.12339 70.2181 7.96598C70.5956 7.80858 71.0006 7.72754 71.4096 7.72754C71.8186 7.72754 72.2235 7.80858 72.6011 7.96598C72.9787 8.12339 73.3214 8.35406 73.6096 8.64469C74.1801 9.24579 74.4982 10.0433 74.4982 10.8726C74.4982 11.7018 74.1801 12.4993 73.6096 13.1004ZM69.7796 12.5998C70.2125 13.0315 70.7986 13.2738 71.4096 13.2738C72.0206 13.2738 72.6067 13.0315 73.0396 12.5998C73.4668 12.1282 73.7035 11.5143 73.7035 10.8776C73.7035 10.2409 73.4668 9.62694 73.0396 9.15535C72.6067 8.72367 72.0206 8.48131 71.4096 8.48131C70.7986 8.48131 70.2125 8.72367 69.7796 9.15535C69.3523 9.62694 69.1157 10.2409 69.1157 10.8776C69.1157 11.5143 69.3523 12.1282 69.7796 12.5998V12.5998ZM75.5796 13.8814V7.8737H76.5196L79.4396 12.5497V7.8737H80.2096V13.8814H79.4096L76.3596 8.98513V13.8814H75.5796Z" fill="white" stroke="white" stroke-width="0.2" stroke-miterlimit="10"/>
<path d="M68.1401 22.643C67.3004 22.6469 66.4807 22.8999 65.7844 23.3699C65.0881 23.8399 64.5465 24.5059 64.2279 25.2838C63.9093 26.0617 63.828 26.9167 63.9942 27.7409C64.1605 28.565 64.5668 29.3214 65.162 29.9146C65.7571 30.5077 66.5144 30.911 67.3383 31.0736C68.1622 31.2362 69.0157 31.1507 69.7911 30.8281C70.5665 30.5054 71.2291 29.96 71.6952 29.2606C72.1613 28.5612 72.4101 27.7393 72.4101 26.8985C72.4183 26.3357 72.3132 25.777 72.1013 25.2557C71.8893 24.7344 71.5748 24.2611 71.1764 23.8641C70.7779 23.467 70.3038 23.1543 69.7822 22.9445C69.2606 22.7347 68.7021 22.6322 68.1401 22.643V22.643ZM68.1401 29.4818C67.6237 29.518 67.1083 29.3977 66.6611 29.1367C66.2138 28.8758 65.8553 28.4861 65.6321 28.0184C65.409 27.5506 65.3315 27.0265 65.4098 26.5141C65.4881 26.0017 65.7185 25.5248 66.0711 25.1452C66.4237 24.7657 66.8821 24.5012 67.3869 24.386C67.8916 24.2708 68.4193 24.3104 68.9013 24.4995C69.3833 24.6886 69.7973 25.0185 70.0896 25.4463C70.3819 25.8741 70.5388 26.3801 70.5401 26.8985C70.5562 27.2269 70.5065 27.5553 70.3938 27.8641C70.2812 28.173 70.1079 28.4562 69.8842 28.697C69.6606 28.9377 69.391 29.1312 69.0914 29.266C68.7919 29.4008 68.4684 29.4742 68.1401 29.4818ZM58.8301 22.643C57.99 22.645 57.1693 22.8962 56.4717 23.365C55.7741 23.8338 55.2309 24.4991 54.9108 25.2769C54.5906 26.0547 54.5079 26.91 54.673 27.7348C54.8381 28.5596 55.2437 29.3169 55.8384 29.9111C56.4332 30.5052 57.1905 30.9095 58.0146 31.0729C58.8388 31.2363 59.6928 31.1514 60.4688 30.8291C61.2448 30.5067 61.908 29.9612 62.3745 29.2617C62.8411 28.5621 63.0901 27.7397 63.0901 26.8985C63.0983 26.3357 62.9932 25.777 62.7813 25.2557C62.5693 24.7344 62.2548 24.2611 61.8564 23.8641C61.4579 23.467 60.9838 23.1543 60.4622 22.9445C59.9406 22.7347 59.3821 22.6322 58.8201 22.643H58.8301ZM58.8301 29.4818C58.3134 29.52 57.7972 29.4016 57.3487 29.1419C56.9002 28.8823 56.5402 28.4934 56.3155 28.026C56.0907 27.5586 56.0118 27.0343 56.0888 26.5213C56.1658 26.0083 56.3953 25.5305 56.7474 25.1499C57.0995 24.7694 57.5578 24.5037 58.0628 24.3877C58.5677 24.2716 59.0959 24.3104 59.5785 24.4991C60.0611 24.6877 60.4757 25.0175 60.7685 25.4455C61.0614 25.8734 61.2187 26.3797 61.2201 26.8985C61.2362 27.2269 61.1865 27.5553 61.0738 27.8641C60.9612 28.173 60.7879 28.4562 60.5642 28.697C60.3406 28.9377 60.071 29.1312 59.7714 29.266C59.4719 29.4008 59.1484 29.4742 58.8201 29.4818H58.8301ZM47.7401 23.9547V25.757H52.0601C51.9924 26.6059 51.6399 27.4069 51.0601 28.0299C50.6279 28.4707 50.1083 28.8161 49.5348 29.0437C48.9613 29.2713 48.3465 29.3762 47.7301 29.3516C46.4571 29.3516 45.2362 28.8453 44.336 27.9439C43.4358 27.0426 42.9301 25.8201 42.9301 24.5454C42.9301 23.2708 43.4358 22.0483 44.336 21.1469C45.2362 20.2456 46.4571 19.7392 47.7301 19.7392C48.9479 19.7193 50.1239 20.1839 51.0001 21.0309L52.2701 19.7593C51.6786 19.1595 50.9728 18.6848 50.1947 18.3631C49.4166 18.0415 48.5819 17.8795 47.7401 17.8868C46.8511 17.8522 45.9643 17.9976 45.1327 18.3144C44.3012 18.6311 43.5421 19.1127 42.9009 19.7302C42.2596 20.3478 41.7495 21.0886 41.4011 21.9082C41.0527 22.7279 40.873 23.6095 40.873 24.5004C40.873 25.3912 41.0527 26.2729 41.4011 27.0925C41.7495 27.9122 42.2596 28.653 42.9009 29.2705C43.5421 29.8881 44.3012 30.3696 45.1327 30.6864C45.9643 31.0031 46.8511 31.1486 47.7401 31.1139C48.5961 31.1526 49.4504 31.0074 50.2455 30.6878C51.0407 30.3683 51.7583 29.882 52.3501 29.2615C53.3978 28.109 53.9571 26.5938 53.9101 25.0361C53.9133 24.6566 53.8798 24.2776 53.8101 23.9046L47.7401 23.9547ZM93.0501 25.3565C92.7893 24.5882 92.3016 23.9174 91.6516 23.4328C91.0016 22.9483 90.2199 22.6728 89.4101 22.643C88.8631 22.6419 88.3217 22.7532 87.8193 22.9699C87.317 23.1867 86.8644 23.5043 86.4895 23.9031C86.1146 24.302 85.8254 24.7736 85.6397 25.2888C85.4541 25.804 85.3759 26.3518 85.4101 26.8985C85.398 27.4581 85.4986 28.0145 85.706 28.5343C85.9134 29.0541 86.2233 29.5267 86.6172 29.924C87.0111 30.3212 87.4809 30.6348 87.9985 30.8461C88.5162 31.0575 89.0711 31.1622 89.6301 31.154C90.3296 31.1577 91.0191 30.9878 91.6369 30.6592C92.2547 30.3307 92.7815 29.8539 93.1701 29.2715L91.7201 28.2702C91.5037 28.6315 91.1973 28.9303 90.831 29.1374C90.4646 29.3445 90.0508 29.4528 89.6301 29.4518C89.1969 29.4683 88.7688 29.3539 88.4014 29.1236C88.0341 28.8932 87.7444 28.5575 87.5701 28.1601L93.2601 25.8071L93.0501 25.3565ZM87.2501 26.7783C87.2298 26.4686 87.2715 26.158 87.3726 25.8646C87.4737 25.5712 87.6323 25.301 87.8391 25.0697C88.0458 24.8385 88.2966 24.6508 88.5766 24.5178C88.8567 24.3848 89.1604 24.3091 89.4701 24.2951C89.7927 24.2738 90.1144 24.3479 90.3953 24.5081C90.6762 24.6683 90.9039 24.9076 91.0501 25.1963L87.2501 26.7783ZM82.6301 30.9036H84.5001V18.3875H82.6301V30.9036ZM79.5701 23.5942H79.5001C79.2183 23.2787 78.873 23.0264 78.487 22.8538C78.101 22.6813 77.6829 22.5924 77.2601 22.5929C76.1673 22.646 75.1368 23.118 74.3821 23.9112C73.6274 24.7044 73.2064 25.7579 73.2064 26.8534C73.2064 27.9489 73.6274 29.0024 74.3821 29.7956C75.1368 30.5888 76.1673 31.0608 77.2601 31.1139C77.6839 31.121 78.104 31.0351 78.491 30.8621C78.8781 30.6891 79.2225 30.4333 79.5001 30.1126H79.5601V30.7234C79.5601 32.3555 78.6901 33.2266 77.2901 33.2266C76.8238 33.2157 76.3713 33.0661 75.9902 32.7968C75.6091 32.5276 75.3167 32.1509 75.1501 31.7147L73.5201 32.3956C73.8269 33.1429 74.3497 33.7814 75.0214 34.2292C75.6932 34.677 76.4832 34.9136 77.2901 34.9088C79.4801 34.9088 81.2901 33.6171 81.2901 30.4731V22.8933H79.5701V23.5942ZM77.4301 29.4818C76.7851 29.4249 76.1847 29.1281 75.7474 28.6499C75.31 28.1717 75.0675 27.5469 75.0675 26.8985C75.0675 26.2501 75.31 25.6252 75.7474 25.147C76.1847 24.6689 76.7851 24.3721 77.4301 24.3151C77.7499 24.3316 78.0632 24.4119 78.3516 24.5515C78.6399 24.691 78.8974 24.8869 79.109 25.1277C79.3205 25.3684 79.4818 25.6491 79.5833 25.9532C79.6848 26.2574 79.7245 26.5787 79.7001 26.8985C79.7274 27.2196 79.6893 27.5429 79.5883 27.8489C79.4872 28.1548 79.3252 28.4371 79.1121 28.6786C78.8989 28.92 78.6391 29.1157 78.3483 29.2538C78.0575 29.3919 77.7417 29.4694 77.4201 29.4818H77.4301ZM101.81 18.3875H97.3401V30.9036H99.2101V26.1575H101.82C102.353 26.1959 102.888 26.1238 103.392 25.946C103.896 25.7681 104.358 25.4882 104.749 25.1237C105.14 24.7592 105.452 24.3179 105.665 23.8273C105.879 23.3368 105.989 22.8075 105.989 22.2725C105.989 21.7375 105.879 21.2082 105.665 20.7177C105.452 20.2271 105.14 19.7858 104.749 19.4213C104.358 19.0568 103.896 18.7769 103.392 18.599C102.888 18.4212 102.353 18.3492 101.82 18.3875H101.81ZM101.81 24.3952H99.2001V20.1297H101.85C102.419 20.1297 102.965 20.356 103.367 20.7588C103.769 21.1616 103.995 21.7079 103.995 22.2775C103.995 22.8471 103.769 23.3934 103.367 23.7962C102.965 24.199 102.419 24.4253 101.85 24.4253L101.81 24.3952ZM113.34 22.5929C112.659 22.5522 111.981 22.7115 111.39 23.0512C110.798 23.391 110.319 23.8964 110.01 24.5054L111.67 25.1963C111.834 24.8942 112.082 24.6464 112.383 24.4828C112.685 24.3193 113.028 24.2471 113.37 24.2751C113.607 24.2473 113.848 24.2672 114.078 24.3335C114.307 24.3998 114.521 24.5112 114.708 24.6613C114.894 24.8114 115.048 24.997 115.162 25.2075C115.276 25.418 115.346 25.649 115.37 25.8872V26.0173C114.77 25.6989 114.1 25.5338 113.42 25.5367C111.63 25.5367 109.82 26.538 109.82 28.3503C109.838 28.7368 109.933 29.1157 110.099 29.4648C110.266 29.8139 110.5 30.1261 110.789 30.3828C111.078 30.6395 111.416 30.8356 111.782 30.9594C112.148 31.0833 112.535 31.1324 112.92 31.1039C113.391 31.1378 113.862 31.0441 114.285 30.8326C114.707 30.6212 115.065 30.2999 115.32 29.9023H115.38V30.9036H117.18V26.0874C117.18 23.8946 115.52 22.623 113.39 22.623L113.34 22.5929ZM113.11 29.4518C112.5 29.4518 111.65 29.1414 111.65 28.3904C111.65 27.3891 112.71 27.0587 113.65 27.0587C114.244 27.044 114.831 27.1892 115.35 27.4792C115.288 28.0213 115.032 28.5225 114.629 28.8905C114.227 29.2585 113.705 29.4685 113.16 29.4818L113.11 29.4518ZM123.74 22.8933L121.6 28.3203H121.54L119.32 22.8933H117.32L120.65 30.4831L118.75 34.6985H120.7L125.82 22.8933H123.74ZM106.93 30.9036H108.8V18.3875H106.93V30.9036Z" fill="white"/>
<path d="M10.4401 8.41482C10.1142 8.80643 9.9497 9.30777 9.98014 9.81663V31.9652C9.9497 32.4741 10.1142 32.9754 10.4401 33.367L10.5101 33.4371L22.9001 21.0411V20.7507L10.5101 8.34473L10.4401 8.41482Z" fill="url(#paint0_linear_452:374)"/>
<path d="M26.9999 25.1765L22.8999 21.0412V20.7508L26.9999 16.6055L27.0899 16.6555L31.9999 19.4491C33.3999 20.2402 33.3999 21.5418 31.9999 22.3429L27.1099 25.1265L26.9999 25.1765Z" fill="url(#paint1_linear_452:374)"/>
<path d="M27.1194 25.1161L22.8995 20.8906L10.4395 33.3667C10.7248 33.6179 11.0888 33.7614 11.4686 33.7723C11.8484 33.7833 12.2201 33.6611 12.5195 33.4268L27.1295 25.1161" fill="url(#paint2_linear_452:374)"/>
<path d="M27.1197 16.6648L12.5097 8.35403C12.2103 8.11974 11.8387 7.99752 11.4589 8.00849C11.0791 8.01946 10.715 8.16293 10.4297 8.41411L22.8997 20.8902L27.1197 16.6648Z" fill="url(#paint3_linear_452:374)"/>
<path opacity="0.2" d="M26.9995 25.0254L12.5095 33.2861C12.2207 33.5022 11.8699 33.619 11.5095 33.619C11.149 33.619 10.7982 33.5022 10.5095 33.2861L10.4395 33.3561L10.5095 33.4262C10.7975 33.6439 11.1486 33.7617 11.5095 33.7617C11.8703 33.7617 12.2214 33.6439 12.5095 33.4262L27.1195 25.1155L26.9995 25.0254Z" fill="black"/>
<path opacity="0.12" d="M10.4401 33.2265C10.1142 32.8349 9.9497 32.3336 9.98014 31.8247V31.9749C9.9497 32.4838 10.1142 32.9851 10.4401 33.3767L10.5101 33.3066L10.4401 33.2265ZM32.0001 22.1923L27.0001 25.026L27.0901 25.1161L32.0001 22.3325C32.2787 22.2014 32.5179 21.9991 32.6935 21.746C32.869 21.4928 32.9748 21.1978 33.0001 20.8906C32.9439 21.1697 32.8245 21.4321 32.6512 21.6578C32.4778 21.8834 32.2551 22.0663 32.0001 22.1923Z" fill="black"/>
<path opacity="0.25" d="M12.5097 8.49409L31.9997 19.5884C32.2547 19.7144 32.4774 19.8973 32.6507 20.1229C32.8241 20.3486 32.9435 20.611 32.9997 20.8901C32.9744 20.5829 32.8686 20.2879 32.693 20.0347C32.5175 19.7816 32.2783 19.5793 31.9997 19.4482L12.5097 8.3539C11.1097 7.56288 9.96973 8.22374 9.96973 9.8258V9.976C9.99973 8.36392 11.1197 7.70307 12.5097 8.49409V8.49409Z" fill="white"/>
<defs>
<linearGradient id="paint0_linear_452:374" x1="21.8001" y1="9.58633" x2="4.99848" y2="26.3663" gradientUnits="userSpaceOnUse">
<stop stop-color="#00A0FF"/>
<stop offset="0.01" stop-color="#00A1FF"/>
<stop offset="0.26" stop-color="#00BEFF"/>
<stop offset="0.51" stop-color="#00D2FF"/>
<stop offset="0.76" stop-color="#00DFFF"/>
<stop offset="1" stop-color="#00E3FF"/>
</linearGradient>
<linearGradient id="paint1_linear_452:374" x1="33.8299" y1="20.891" x2="9.6399" y2="20.891" gradientUnits="userSpaceOnUse">
<stop stop-color="#FFE000"/>
<stop offset="0.41" stop-color="#FFBD00"/>
<stop offset="0.78" stop-color="#FFA500"/>
<stop offset="1" stop-color="#FF9C00"/>
</linearGradient>
<linearGradient id="paint2_linear_452:374" x1="24.8295" y1="23.1936" x2="2.04007" y2="45.9436" gradientUnits="userSpaceOnUse">
<stop stop-color="#FF3A44"/>
<stop offset="1" stop-color="#C31162"/>
</linearGradient>
<linearGradient id="paint3_linear_452:374" x1="7.29969" y1="1.0446" x2="17.4728" y2="11.2046" gradientUnits="userSpaceOnUse">
<stop stop-color="#32A071"/>
<stop offset="0.07" stop-color="#2DA771"/>
<stop offset="0.48" stop-color="#15CF74"/>
<stop offset="0.8" stop-color="#06E775"/>
<stop offset="1" stop-color="#00F076"/>
</linearGradient>
</defs>
</svg>
